<svg xmlns="http://www.w3.org/2000/svg" fill-rule="evenodd" stroke-miterlimit="1.4" viewBox="0 0 2157 1139" xmlns:xlink="http://www.w3.org/1999/xlink" clip-rule="evenodd" stroke-linejoin="round"><path fill="url(#a)" d="M0 0h2157v1139H0z"/><clipPath id="b"><path d="M0 0h2157v1139H0z"/></clipPath><g clip-path="url(#b)"><path fill="#f8972c" fill-rule="nonzero" d="M892.6 255.5l33 8-9.4 17.7-23.6-25.7zM1158 297l8.5-20.7 10.6 7.7-19 13z"/><path fill="#e54065" fill-rule="nonzero" d="M1344 886.7l-115.6 61.5 41.5-124.8 74 63.3z"/><path fill="#f05c7f" fill-rule="nonzero" d="M1141.3 795.5l202.8 91.2-84.6-217-118 125.8z"/><path fill="#e54065" fill-rule="nonzero" d="M1590.4 696l-449 99.5-39.6-134.8 488.6 35.3z"/><path fill="#f05c7f" fill-rule="nonzero" d="M1590.4 371.7H629.8l15.7 307 945 17.3V371.7z"/><path fill="#e54065" fill-rule="nonzero" d="M949.5 634.7l-27.6 9-10.8-27-24.6 15.4-17-23.5-20 20.8-22-18.8-14.7 25-26-13-8.2 27.8-28.3-6.5-1.3 29-29 .4 1.4 6.8 258.3 4.8 2.3-23.6-29 2.2-3.8-28.7zM787 371.7L751.4 447h703v-75.3H787z"/><path fill="#d27c2d" fill-rule="nonzero" d="M1442 297l69.8 74.7H1442V297z"/><path fill="#f8972c" fill-rule="nonzero" d="M708.5 336.2L616 225.6l50.7-25L708.5 336z"/><path fill="#d27c2d" fill-rule="nonzero" d="M616 225.6l-3 34 95.5 76.6L616 225.6zM754 265.7c-4.5-6-67-98.8-67-98.8l47-18.8 20 117.5z"/><path fill="#f05c7f" fill-rule="nonzero" d="M1486.2 247.2l30.6-117.8 66.4 35.3-97 82.5z"/><path fill="#f8972c" fill-rule="nonzero" d="M1511.5 335.8l54.8-72.2 33 31-87.8 41.2zM1386.4 269l-2.3-80 45.3 14.6-43 65.4zM818.7 209l-7.2 76 49-60.4-41.8-15.7z"/><path fill="#f05c7f" fill-rule="nonzero" d="M901.8 211.2l34.6-44.3 2.8 37-37.4 7.2z"/><path fill="#f8972c" fill-rule="nonzero" d="M644.7 425.2L602 388.7l19.3-22.7 23.4 59.2z"/><path fill="#d27c2d" fill-rule="nonzero" d="M640.6 170l-3 27.7 38.4-.6-35.4-27z"/><path fill="#f05c7f" fill-rule="nonzero" d="M1455.4 232l-4.6-36.3 17.5-.3-13 36.6z"/><path fill="#d27c2d" fill-rule="nonzero" d="M1516 268.4l17.7-33 10.4 16-28 17z"/><path fill="#f8972c" fill-rule="nonzero" d="M1351.4 274l-30.8-21.4-6.6 22 37.4-.6z"/><path fill="#f05c7f" fill-rule="nonzero" d="M1086.8 241.2l-11.2 33 31.3-16.8-20.2-16.2z"/><path fill="#f8972c" fill-rule="nonzero" d="M1170.7 169l-23 74.3L1188 231l-17.5-62zM1021.3 151.3l-23 51.6 35.5-9.2-12.5-42.5z"/><path fill="#f05c7f" fill-rule="nonzero" d="M1286 168l-9.6 37.3s30.5-17.8 28-19c-2.4-1.2-18.3-18.2-18.3-18.2z"/><path fill="#e54065" fill-rule="nonzero" d="M1583.2 164.7l.6 39.7-97.6 42.8 97-82.5z"/><path fill="#d27c2d" fill-rule="nonzero" d="M1599.2 294.7l-1.5 28.3-86.2 12.8 87.7-41z"/><path fill="#f05c7f" fill-rule="nonzero" d="M652.5 362l-72-32 20-34 52 66z"/><path fill="#e54065" fill-rule="nonzero" d="M600.5 296l24.2-4.4 27.8 70.4-52-66z"/><path fill="#d27c2d" fill-rule="nonzero" d="M1104.8 149.8l6.8 7.8 10-1.4-5 9 4.3 9.4-10-2.2-7.2 7.2-1-10.3-9-5 9.2-4.2 2-10.2z"/><path fill="#e54065" fill-rule="nonzero" d="M988.7 238l.3 10.2 8.4 5.5-9.3 3.5-2.4 10-6-8.2-10 .6 5.6-8.4-3.6-9.5 9.5 2.8 7.7-6.5zM1388 125.2l.4 13 10.5 7-12 4.2-3 12.5-7.7-10.3-12.5.8 7-10.7-4.5-12 12 3.6 9.7-8.2z"/><path fill="#d27c2d" fill-rule="nonzero" d="M792.2 152.2l.3 10 8 5.4-9 3.4-2.4 9.6-6-8-9.5.7 5.4-8.3-3.6-9.3 9.3 2.8 7.5-6.3z"/><path fill="#e54065" fill-rule="nonzero" d="M730 274l7.5 6.4 9.3-3-3.4 9.5 5.5 8-9.8-.4-6 8-2.4-9.7-9.2-3.4 8.2-5.5.2-10zM1227.3 231l9.6 8.4 12-3.4-4.8 12 7 11-12.6-1-8 10-3-12.5-11.7-4.7 10.6-6.8.7-13z"/><path fill="#d27c2d" fill-rule="nonzero" d="M1623.5 247l-2 11.6 8 8.3-11.3 1.5-5 10.4-5-10.6-11.3-1.8 8-8-1.7-11.7 10 5.5 10.2-5.4z"/><path fill="#f8972c" fill-rule="nonzero" d="M1545.2 349.2l26.7 17.4-19 19.3-7.8-36.8zM1442 297H799.2L739 425.2h703V297z"/><path fill="#fff" fill-rule="nonzero" d="M825.7 945.5L801 961l-10.7-27-27.5 9-4-28.7-29 2.2 3-29-28.5-4.7 9.8-27.2-26.4-11.6 16-24-23-17.6 21.3-19.6-18.3-22.6 25.4-14-12-26 28-7.5-5.8-28.5 29-.5 1.3-29 28.3 6.6 8.2-27.8 26 13 14.5-25 22 18.8 20.2-20.8 17 23.6L910 628l10.7 27 27.5-9 4 28.6 29-2.2-3 28.8 28.4 4.8-10 27.3 26.7 11.6-16 24 23 17.7-21.3 19.6 18.2 22.4-25.5 14 12.4 26.2-28 7.4 5.6 28.4-29 .5-1.3 29-28.2-6.6-8.3 27.8-25.8-13-14.7 25-22-19-20.2 21-16.8-23.7z"/><path fill="#00b3d9" fill-rule="nonzero" d="M934.4 668l3.4 24.5 24.6-2-2.6 24.6 24.3 4.2-8.3 23 22.6 10-13.6 20.4 19.6 15L986 804l15.6 19.3L980 835l10.4 22.4-23.8 6.2 4.8 24.2-24.6.4-1 24.6-24-5.5-7 23.6-22-11.2-12.5 21.3-18.7-16-17 17.7-14.4-20-21 13-9-22.8-23.4 7.5-3.4-24.3L749 898l2.5-24.5-24.3-4 8.3-23.2-22.6-9.8 13.6-20.4-19.6-14.8 18-16.7-15.3-19 21.6-12-10.5-22.2 23.8-6.3-4.8-24 24.6-.5 1.2-24.6 24 5.4 7-23.6 22 11 12.3-21.2 18.6 16 17.2-17.7 14.3 20 21-13 9 22.8 23.4-7.7z"/><path fill="#fff" fill-rule="nonzero" d="M804.6 860.5c1.7.3 3.2 0 4.5-1 1.3-1 2.5-2.5 3.5-4.6 1-2.2 2-4.8 2.7-8l2.5-10.6.8-4.3.7-4.7.3-4.8c0-1.6-.2-3-.5-4.3-.4-1.3-1-2.4-1.6-3.3-.7-1-1.6-1.5-2.8-1.8-1.2-.2-2.2 0-3.2.4-1 .5-2 1.3-2.7 2.4-.8 1-1.5 2.3-2.2 3.7l-1.7 4.5c-.6 1.6-1 3.2-1.4 4.7l-1 4.2-2 10.7c-.5 3-.8 6-.7 8.2 0 2.3.4 4.2 1.2 5.6.6 1.4 2 2.3 3.6 2.7zm-2.4 11c-2.8-.7-5-1.7-7-3-2-1.5-3.5-3.2-4.6-5.2-1.2-2-2-4.3-2.5-6.8-.4-2.5-.6-5.2-.6-8s.2-5.8.6-8.8c.4-3 1-6.2 1.6-9.3 1-4.6 2.3-8.8 4-12.6 1.6-3.8 3.5-7 5.8-9.4 2.2-2.5 4.8-4.2 7.7-5.2 3-1 6.2-1 9.8-.3 3.6.6 6.5 2 8.8 4 2.3 2.2 4 5 5 8 1 3.2 1.6 6.8 1.6 11 0 4-.6 8.5-1.6 13-.7 3.2-1.4 6.3-2.3 9.2l-3 8.4c-1.2 2.5-2.5 5-4 7s-3.2 3.8-5 5.2c-2 1.4-4 2.3-6.4 2.8-2.4.5-5 .4-7.8-.2zM847 810.4l33.5 7-3.2 10.3-19.7-4.2-3.6 17.3 13.8 3-2.3 11-14-3-5.6 27-13.2-1.8 14-66.6zM887.4 819l33.5 7-3.3 10.3L898 832l-3.6 17.4 14 3-2.5 11-14-3-5.7 27-13-1.8 14-66.6z"/><clipPath id="c"><path d="M916.2 281.2l-5.6-6h9l-3.4 6z"/></clipPath><g clip-path="url(#c)"><use width="8.9" height="6.1" x="910.6" y="275.1" xlink:href="#d" transform="matrix(1 0 0 .9 0 0)"/></g><clipPath id="e"><path d="M1158.2 297l8.3-20.7 10.6 7.7-18.8 13z"/></clipPath><g clip-path="url(#e)"><use width="19" height="20.7" x="1158.1" y="276.3" xlink:href="#f" transform="rotate(1.9 0 0)"/></g><g fill="#c6752e" fill-rule="nonzero"><path d="M896.4 328.5H880L857.3 398h15l4.4-15.5h22l4.4 15.5h15.2l-22-69.5zm-16.6 42l6.7-23.5c.6-2 1-4 1-6h.4c0 2.3.5 4.4 1 6.2l6.6 23.3h-15.8zM963 328.5l-13 48.2c-.6 2.5-1 5-1.2 7h-.3c0-2-.5-4.3-1.2-6.8l-13-48.5h-15l21 69.5h16l21.2-69.5H963zM1017.2 328.5h-16.5L978.3 398h15l4.4-15.5h22l4.3 15.5h15.2l-22-69.5zm-16.5 42l6.7-23.5c.5-2 1-4 1-6h.4c0 2.3.5 4.4 1 6.2l6.6 23.3h-15.7zM1083.7 385.3h-23v-56.8H1047V398h36.7v-12.7zM1086.7 328.5v12h5.2V386h-5.3v12h24.3v-12h-5v-45.4h5v-12h-24.3zM1152.3 328.5h-16.5l-22.5 69.5h15l4.4-15.5h22l4.4 15.5h15.2l-22-69.5zm-16.6 42l6.7-23.5c.5-2 1-4 1-6h.4c.2 2.3.6 4.4 1 6.2l6.7 23.3h-15.8zM1205 420c9 0 13.6-3.3 13.6-10 0-5-2.6-7.7-8-8v-3c6.3 0 11.5-1.2 15.6-3.5v-14.3c-4.5 3-9.4 4.5-15 4.5-5.5 0-10-2-13.5-6-3.3-4-5-9.3-5-16 0-7 1.8-12.6 5.4-16.7 3.6-4.2 8.3-6.2 14-6.2 5.4 0 10 1.4 14.2 4.2v-15c-4-1.8-9.2-2.7-15.3-2.7-9.8 0-17.7 3.5-23.8 10.5-6 6.8-9 15.8-9 27 0 10.4 2.6 18.7 8 25 4.4 5 10 8 17 9v8h1.6c3 0 4.7 1 4.7 3 0 2.5-1.7 3.7-5.3 3.7-1 0-2 0-3-.3v6.6c1.2.2 2.4.2 3.7.2zM1269.3 328.5h-16.5l-22.4 69.5h15l4.4-15.5h22l4.3 15.5h15.3l-22-69.5zm-16.5 42l6.7-23.5c.5-2 1-4 1-6h.4c0 2.3.4 4.4 1 6.2l6.5 23.3h-15.7zM1270 307c0 3.6-1 5.3-3.2 5.3-1.3 0-3-.6-5.2-2-2.5-1.6-5-2.4-7.3-2.4-2.8 0-5 1-6.6 3.6-1.6 2.4-2.3 6-2.3 10.5h6c0-3.4 1.2-5.2 3.5-5.2.8 0 2.6.8 5.2 2.3 2.3 1.5 4.7 2.2 7.2 2.2 2.7 0 5-1.2 6.5-3.7s2.3-6 2.3-10.5h-6.2zM1347 389.2c5.8-6.7 8.6-15.5 8.6-26.4 0-10.6-2.7-19.2-8-25.7-5.6-6.4-12.7-9.7-21.5-9.7-9.3 0-16.8 3.4-22.4 10.3-5.7 6.7-8.5 15.5-8.5 26.6 0 10.4 3 18.8 8.5 25.3s12.8 9.7 21.6 9.7c9.2 0 16.5-3.3 22-10zm-10-42.4c2.6 4 4 9.6 4 17 0 6.7-1.5 12.2-4.3 16-2.8 4-6.6 6-11.4 6-4.6 0-8.3-2-11.2-6.2-3-4-4.3-9.4-4.3-16.2 0-6.8 1.4-12.2 4.4-16.4 3-4 6.8-6.2 11.7-6.2 4.8 0 8.5 2 11.2 6z"/></g><g fill="#fbfbfa" fill-rule="nonzero"><path d="M889.2 323.7h-16.5l-22.5 69.5h15l4.4-15.5h22l4.4 15.5h15.2l-22-69.5zm-16.6 42l6.7-23.5c.6-2 1-4 1-6h.4c.2 2.3.6 4.4 1 6.2l6.7 23.3h-15.8zM955.7 323.7L943 372c-.8 2.4-1.2 4.8-1.4 7h-.3c0-2-.5-4.4-1.2-7l-12.8-48.3h-15l21 69.5H949l21.3-69.5h-14.6zM1010 323.7h-16.5L971 393.2h15l4.5-15.5h22l4.3 15.5h15.2l-22-69.5zm-16.5 42l6.7-23.5c.5-2 1-4 1-6h.4c0 2.3.5 4.4 1 6.2l6.6 23.3h-15.7zM1076.5 380.5h-23v-56.8h-13.8v69.5h36.7v-12.7zM1079.5 323.7v12h5.2v45.4h-5.2v12.2h24.3v-12h-5v-45.4h5v-12h-24.3zM1145 323.7h-16.4l-22.5 69.5h15.2l4.3-15.5h22l4.4 15.5h15l-22-69.5zm-16.5 42l6.7-23.5c.5-2 1-4 1-6h.4c.2 2.3.6 4.4 1 6.2l6.7 23.3h-15.8zM1197.8 415.2c9 0 13.6-3.3 13.6-10 0-5-2.6-7.7-8-8v-3c6.3 0 11.5-1.2 15.6-3.5v-14.3c-4.5 3-9.4 4.5-15 4.5-5.5 0-10-2-13.5-6-3.3-4-5-9.4-5-16 0-7.2 1.8-12.7 5.4-16.8 3.4-4.2 8-6.2 14-6.2 5.2 0 10 1.4 14 4.2v-15c-4-1.8-9.2-2.7-15.3-2.7-9.7 0-17.6 3.5-23.7 10.5-6 6.8-9 15.8-9 27 0 10.4 2.6 18.7 8 25 4.4 5 10 8 17 9v8h1.6c3 0 4.7 1 4.7 3 0 2.5-1.7 3.7-5.3 3.7-1 0-2 0-3-.3v6.6c1.2.2 2.4.2 3.7.2zM1262 323.7h-16.4l-22.4 69.5h15l4.4-15.5h22l4.3 15.5h15l-22-69.5zm-16.4 42l6.7-23.5c.5-2 1-4 1-6h.4c.2 2.3.5 4.4 1 6.2l6.6 23.3h-15.7zm17.3-63.5c0 3.6-1.2 5.3-3.4 5.3-1.3 0-3-.6-5.2-2-2.5-1.6-5-2.4-7.3-2.4-2.7 0-5 1.3-6.5 3.8-1.6 2.4-2.3 6-2.3 10.5h6c0-3.5 1.2-5.3 3.5-5.3 1 0 2.7.8 5.3 2.3 2.3 1.4 4.7 2 7.2 2 2.7 0 5-1 6.5-3.6 1.6-2.5 2.4-6 2.4-10.5h-6zM1340 384.4c5.6-6.7 8.4-15.5 8.4-26.4 0-10.6-2.7-19.2-8-25.7-5.6-6.5-12.7-9.8-21.5-9.8-9.5 0-17 3.4-22.6 10.3-5.7 6.7-8.5 15.5-8.5 26.6 0 10.4 2.7 18.8 8.3 25.3 5.5 6.5 12.8 9.7 21.6 9.7 9 0 16.3-3.3 22-10zm-10.3-42.4c2.7 4 4 9.6 4 17 0 6.7-1.4 12.2-4.2 16-2.8 4-6.6 6-11.4 6-4.5 0-8.2-2-11-6.2-3-4-4.5-9.4-4.5-16.2 0-6.8 1.4-12.2 4.4-16.4 2.8-4 6.6-6.2 11.5-6.2 4.8 0 8.5 2 11.2 6z"/></g><clipPath id="g"><path d="M1302 779h-86.6l79.8-17.6 7 17.7z"/></clipPath><g clip-path="url(#g)"><use width="86.7" height="17.7" x="1215.4" y="761.4" xlink:href="#h" transform="rotate(4.8 0 0)"/></g><clipPath id="i"><path d="M748.4 680.5l-26.8-.5-1.4-6.8 28.5-.4-.3 7.7zm204-6l-4-28.8-27.5 9-10.8-27-24.6 15.4-17-23.5-20 20.8-22-18.8-14.7 25-26-13-8.2 27.8L750 655l.5-11.2 28.3 6.5 8.2-27.8 26 13 14.5-25 22 18.8 20.2-20.8 17 23.6L911 617l10.7 27 27.5-9 4 28.6 28.8-2.2-1 11-28.8 2.2z"/></clipPath><g clip-path="url(#i)"><use width="262.1" height="72" x="720.2" y="608.5" xlink:href="#j" transform="rotate(4.7 0 0)"/></g><clipPath id="k"><path d="M1454.5 447h-54.3v-21.8h41.8v-9h12.5V447zm-628.3 0h-74.7l10.3-21.8h64.4V447z"/></clipPath><g clip-path="url(#k)"><use width="703" height="30.9" x="751.5" y="416.1" xlink:href="#l" transform="rotate(.5 0 0)"/></g><clipPath id="m"><path d="M644.7 425.2l-10.7-9h7l3.7 9z"/></clipPath><g clip-path="url(#m)"><use width="10.6" height="9.1" x="634" y="416.1" xlink:href="#n" transform="scale(1 .9)"/></g><clipPath id="o"><path d="M1442 425.2h-41.8v-9h41.8v9zm-615.8 0H739l4.3-9h83v9z"/></clipPath><g clip-path="url(#o)"><use width="703" height="9.2" x="739" y="416.1" xlink:href="#p" transform="scale(1 .9)"/></g><clipPath id="q"><path d="M1021.2 779h-28l-8.5-6.4 13.6-20.5-22.6-9.7 8.4-23L960 715l2.6-24.4-24.6 2-3.4-24.5L911 676l-9-23-21 13-14.2-20-17.2 17.8-18.7-16-12.5 21.2-22-11-7 23.6-24-5.5-1 24.5-24.7.4 4.8 24-23.8 6.3 10.5 22.3-21.6 11.8 11 13.7H699l-15.3-18.8 25.4-14-12-26 28-7.5-5.8-28.5 29-.5.2-3.2.3-7.7.8-18h.5l27.8 6.5 8.2-27.8 26 13 14.5-25 22 18.8 20.2-20.8 17 23.6L910 628l10.7 27 27.5-9 4 28.6 28.7-2.2h.2l-1.4 12.6-1.6 16.2 28.5 4.8-10 27.3 26.7 11.6-16 24 13.5 10.5z"/></clipPath><g clip-path="url(#q)"><use width="340" height="159.5" x="683.7" y="619.5" xlink:href="#r" transform="rotate(4.4)"/></g><clipPath id="s"><path d="M993.2 779H720.7l-11-13.6 21.6-11.8-10.5-22.3 23.8-6.3-4.8-24 24.6-.5 1.2-24.6 24 5.4 7-23.6 22 11 12.3-21.2 18.6 16 17.2-17.7 14.3 20 21-13 9 22.8 23.4-7.7 3.4 24.5 24.6-2-2.6 24.6 24.3 4.2-8.3 23 22.6 10-13.6 20.4 8.5 6.5z"/></clipPath><g clip-path="url(#s)"><use width="288.6" height="133.1" x="709.7" y="645.9" xlink:href="#t" transform="rotate(2.8 0 0)"/></g><clipPath id="u"><path d="M826.2 425.2h574V447h-574z"/></clipPath><g clip-path="url(#u)"><use width="574" height="21.7" x="826.2" y="425.2" xlink:href="#v" transform="rotate(.2)"/></g><g fill="#933951" fill-rule="nonzero"><path d="M799.3 529h-49l-5.4 23h22.8l-6 25c-4 2-9.2 3-15.5 3-10.3 0-17.5-3.7-21.8-10.8-4.3-7.3-5-17.4-2-30.6 3.3-13 9.2-23.4 17.8-31 8.6-8 18.2-12 29-12 13 0 23 3 30.5 8.7l6.5-27c-8.4-4-18.7-5.7-30.8-5.7-19.4 0-36.3 6.4-51 19-14.7 12.6-24.6 29-29.4 49.3-4.7 19.8-3 35.6 4.8 47 7.8 11.5 21 17.2 39.6 17.2 16.6 0 31.3-3.5 44.4-10.8l15.5-64.5zM888 564c-.8-2-1.5-4-2.5-6-.8-2-1.8-4-3-5.7-1-1.8-2-3.4-3.3-4.7-1.3-1.3-2.7-2.4-4.2-3v-.3c4-1.3 8-3 11.8-5.2 3.8-2 7-4.8 10-7.7 3-3 5.6-6.4 7.8-10.3 2-3.8 3.7-8 4.8-12.4 5.6-23.3-5.6-34.8-33.5-34.8h-41L804 602h26l11.8-49h7c1.5 0 3 .2 4 1 1.4.7 2.4 1.8 3.2 3.3 1 1.3 2 3 2.6 5 .7 2 1.4 4 2 6.7l10 33h29.8L888 564zm-20.7-68.6c12 0 16.7 5.7 14 16.8-1.3 5.3-4 10-8.3 13.4-4.4 3.7-9.2 5.5-14.8 5.5H847l8.6-35.6h11.7z"/><path d="M1002.3 473.8h-30.7L899 602h28l15-28.6h40.8L984 602h28.3l-10-128.2zm-49.5 77.4l23-43.4c1.8-3.6 3.5-7.5 4.5-11h.7c-.7 4.3-1 8-.8 11.4l2 43h-29.4zM1138.2 473.8h-91.4l-5.7 23.4h32.8L1048.6 602h26l25-104.8h33l5.6-23.4zM1247.3 473.8h-26l-18 75.4c-4.8 20-14.3 30-28.6 30-14.6 0-19.3-10.4-14.3-31l17.8-74.4h-26l-17.7 74c-9 37.5 2 56.4 33.3 56.4 32 0 52.8-19.3 62-57.7l17.5-72.7zM1262.6 473.8l-5.3 22.3h9.6l-20 83.6h-9.8l-5.4 22.4h45.2l5.3-22.4h-9.5l20-83.5h9.6l5.4-22.2h-45.2zM1405 473.8h-91.3l-5.7 23.4h32.7L1315.5 602h26l25-104.8h33l5.6-23.4zM1480.7 473.8H1450L1377.4 602h28l15-28.6h40.8l1.4 28.6h28.2l-10-128.2zm-49.4 77.4l23-43.4c1.7-3.6 3.5-7.5 4.5-11h.7c-.7 4.3-1 8-.8 11.4l2 43h-29.4zM1536.2 473.8L1518 562h20.5l24.3-88.2h-26.6zm-6.3 126c3.4-2.8 5.5-6.3 6.6-10.7 1-4 .5-7.5-1.6-10.3-2-2.7-5.2-4.2-9.5-4.2s-8 1.5-11.5 4.2c-3.5 2.8-5.8 6.2-6.8 10.4-1 4.4-.4 7.8 1.7 10.8 2 2.7 5.2 4.2 9.4 4.2 4.3 0 8.2-1.3 11.5-4.2z"/></g><g fill="#fbfbfa" fill-rule="nonzero"><path d="M787.3 521.7h-49l-5.5 23h23l-6 25.2c-4 2-9.3 2.8-15.5 2.8-10.3 0-17.5-3.7-22-10.8-4.2-7.3-5-17.4-1.7-30.6 3-13 9-23.4 17.6-31 8.7-8 18.3-12 29-12 13 0 23 3 30.6 8.7l6.5-27c-8.5-3.8-18.7-5.6-30.8-5.6-19.4 0-36.4 6.4-51 19-14.8 12.6-24.6 29-29.5 49.3-4.8 20-3 35.7 4.8 47.2 7.8 11.3 21 17 39.5 17 16.6 0 31.4-3.5 44.5-10.8l15.5-64.5zM875.8 557c-.6-2.2-1.3-4.2-2.3-6.2-.8-2-1.8-4-3-5.7-1-1.7-2-3.3-3.4-4.6-1.2-1.3-2.6-2.4-4-3v-.3c4-1.2 8-3 11.8-5 3.8-2.3 7-5 10-8s5.5-6.3 7.8-10.2c2-3.8 3.7-8 4.8-12.4 5.5-23.3-5.6-34.8-33.5-34.8h-41.2L792 594.8h26l11.8-49h7c1.5 0 3 .2 4 1 1.3.7 2.4 1.8 3.2 3.3 1 1.4 2 3 2.6 5 .6 2 1.4 4.2 2 6.8l10 33h29.8l-12.6-38zM855.2 488c12 0 16.7 5.7 14 16.8-1.2 5.3-4 10-8.3 13.4-4.4 3.7-9.3 5.5-14.8 5.5H835l8.6-35.8h11.6z"/><path d="M990.2 466.6h-30.7L887 594.8h28l15-28.6h40.7l1.4 28.6h28.3l-10-128.2zM940.8 544l23-43.4c1.7-3.6 3.5-7.5 4.5-11h.7c-.8 4.3-1 8-.8 11.4l2 43h-29.4zM1126.2 466.6h-91.5L1029 490h32.8l-25.2 104.8h26l25-104.8h33l5.6-23.4zM1235.3 466.6h-26l-18 75.4c-4.8 20-14.3 30-28.6 30-14.6 0-19.3-10.4-14.4-31l18-74.4h-26l-17.8 74c-9 37.5 2 56.4 33.2 56.4 32.2 0 53-19.3 62-57.7l17.6-72.7zM1250.6 466.6l-5.4 22.3h9.7l-20 83.4h-9.8l-5.4 22.4h45l5.5-22.4h-9.5l20-83.5h9.6l5.3-22.4h-45zM1393 466.6h-91.4L1296 490h32.6l-25 104.8h25.8l25.2-104.8h32.8l5.6-23.4zM1468.7 466.6H1438l-72.6 128.2h28l15-28.6h40.8l1.4 28.6h28.2l-10-128.2zm-49.5 77.4l23-43.4c1.8-3.6 3.5-7.5 4.6-11h.6c-.7 4.3-1 8-.8 11.4l2 43h-29.4zM1524.2 466.6l-18.2 88.2h20.5l24.3-88.2h-26.6zm-6.3 126c3.4-2.8 5.5-6.3 6.6-10.7 1-4.3.5-7.7-1.6-10.5-2.2-2.7-5.3-4.2-9.5-4.2-4.3 0-8 1.5-11.5 4.2-3.5 2.8-5.8 6.2-6.8 10.4s-.4 7.6 1.7 10.6c2 2.7 5 4.2 9.4 4.2 4.3 0 8.2-1.3 11.5-4.2z"/></g><path fill="#fcf6f6" fill-rule="nonzero" d="M803.4 767.7l-11.2-2.5 10.8-53-24.6.2-2.3 11.2 12.2-.3-8 39.3L769 760l-2.3 11 34.5 7.7 2.2-11zM843.4 780.3c4.6-5 8-12.7 10.2-23.4 4.4-21.5.3-33.7-12.4-36.5-6.7-1.4-12.3.3-17 5.3-4.6 5-8 13-10.4 23.8-4.3 21 0 33 13 36 6.5 1.4 12-.3 16.6-5.3zm-2-25.6c-3 14.6-7 21.4-12 20.3-5-1-6.2-8.8-3.3-23 3.2-15 7.3-22 12.5-21 5 1 5.8 9 2.8 23.7zM888 790.2c4.7-5 8-12.7 10.3-23.4 4.3-21.4.2-33.5-12.4-36.4-6.8-1.4-12.4.3-17 5.3-4.8 5-8.3 13-10.5 23.8-4.3 21 0 33 13 36 6.4 1.4 12-.3 16.6-5.3zm-2-25.6c-3 14.7-7 21.4-12 20.3-5-1.2-6-9-3.2-23 3-15.2 7.2-22.2 12.4-21 5 1 5.8 9 2.8 23.6zM928 769.5c3-2.5 5-6.3 6.2-11.5 1-5 .7-9.2-1-12.5-1.7-3.3-4.5-5.4-8.6-6.3-4.2-1-7.8 0-11 2.4-3 2.5-5.2 6.5-6.3 11.7-1 4.8-.6 9 1.2 12.2 1.8 3.4 4.6 5.6 8.5 6.4 4.2.8 7.8 0 11-2.5zm-1.8-13c-1.2 6-3.6 8.6-7.2 7.8-3.5-.8-4.7-4-3.5-9.7 1.2-6 3.6-8.5 7.3-7.7 3.4.7 4.5 4 3.4 9.6zm27.7-9.8L905.6 802l9.2 2 48.2-55.3-9.3-2zm1.3 62.2c3-2.6 5.2-6.4 6.3-11.6 1-5 .7-9-1-12.4-1.7-3.3-4.6-5.4-8.6-6.3-4.2-1-8 0-11 2.4-3.2 2.6-5.3 6.6-6.3 11.8-1 4.8-.6 9 1.2 12.2 1.6 3.4 4.5 5.6 8.3 6.4 4.2 1 8 .2 11-2.5zm-2-19.5c.8 1.7.8 4 .2 6.6-1.2 6-3.5 8.6-7 7.8-3.7-.8-5-4-3.8-9.7 1.3-5.8 3.7-8.4 7.4-7.6 1.6.4 2.7 1.4 3.4 3z"/><g fill="#d27c2d" fill-rule="nonzero"><path d="M697.5 935l.8 1.7 1 1.7c.3.6.6 1 1 1.3.7 1 1.6 2 2.5 2.6 1 .8 2 1.3 3 1.6 1 .2 2 .3 3.2 0 1 0 2-.7 3.3-1.6.8-.7 1.4-1.4 1.8-2.2.5-.8.8-1.7 1-2.7v-3l-.6-3-.5-3c-.2-.7-.3-1.4-.2-2 0-.8 0-1.4.4-2 .2-.5.6-1 1.2-1.4.6-.4 1.2-.7 2-.8.5 0 1 0 1.8.2.6.2 1 .6 1.7 1l1.4 1.5c1.6 1.8 2.4 3.8 2.5 5.8l2.8-2.4c-.2-1.3-1.2-3-2.8-5.2-.8-1-1.6-1.7-2.6-2.4s-2-1.2-3-1.5c-1-.3-2-.3-3.2 0-1 0-2 .5-3 1.4-1 .6-1.6 1.4-2 2-.4 1-.6 1.7-.7 2.6-.2.8-.2 1.8 0 2.7 0 1 .2 2 .4 3 0 1 .3 2 .5 3l.2 2.3c0 .7-.2 1.4-.4 2-.3.6-.7 1.2-1.3 1.6-1 .8-2.3 1.2-3.5 1-1.2-.4-2.4-1.3-3.6-2.8-.5-.5-1-1-1.2-1.6l-.8-1.8-.6-2c0-.7-.2-1.3 0-2l-3.2 2.6.3 1.5zM729.2 964.3c3.6-.4 7-2.3 10.2-5.7 3-3 4.4-6.5 4.6-10 .2-3.5-1-6.5-3.8-9-3-3-6.3-4-10-3.7-3.5.3-7 2-10 5.5-3 3-4.5 6.4-4.7 10 0 3.5 1.2 6.6 4 9.3 3 2.7 6 3.8 9.7 3.5zm11.6-15.7c-.2 2.6-1.6 5.3-4.2 8-2.5 2.7-5 4.2-7.8 4.6-2.6.3-5-.6-7.2-2.6-2-2-3-4.3-2.7-7 0-2.8 1.4-5.5 3.8-8 2.4-2.6 5-4 7.8-4.4 2.8-.4 5.2.4 7.3 2.4 2 2 3 4.3 2.8 7zM748.8 979.6l-9-6.4 15-20.8-2.5-1.8-16.7 23.3 11.4 8 1.8-2.4zM764.3 959l-1.4 2.4 2 1.4-11.6 19.7-2.3-1.4-1.4 2.5 7.3 4.4 1.4-2.5-2.3-1.4 12-19.6 2 1.4 1.6-2.5-7.3-4.3zM781 995c-2.4.2-4.8-.2-7.2-1.4-2.7-1.2-4.4-3.2-5.2-5.8-.7-2.7-.4-5.6 1-8.7 1.7-3.3 3.8-5.5 6.5-6.7 2.8-1 5.5-1 8.4.3 2 1 3.8 2.4 5 4.3l1.6-3.4c-1.2-1.4-3-2.7-5.3-3.8-3.6-1.7-7.3-1.8-10.8-.3-3.7 1.4-6.4 4.2-8.4 8.3-1.8 4-2.2 7.5-1.2 11 1 3.3 3.2 5.7 6.7 7.4 2.8 1.3 5.3 1.8 7.6 1.7l1.4-3zM793 973.4l-1 2.7 2.6 1-7.6 21.6-2.5-1-1 3 8 2.7 1-2.7-2.5-1 7.6-21.5 2.5 1 1-2.8-8-2.8zM820 981.3l-18.3-4.6-.7 3 7.6 1.8-6.3 25 3 .7 6.3-25 7.7 2 .7-3zM834 1009l-11-1.5 1.2-10 9.7 1.2.3-3-9.8-1.2 1.2-9.5 10.6 1.4.3-3-13.6-1.8-3.6 28.5 14.3 2 .3-3zM861.6 983.2l-3.3.2-8.4 29.3 3.4-.2 2.2-8.2 11.5-.8 3.5 7.8 3.5-.3-12.4-27.8zm-5.2 18l3.4-12.5.3-2 .7 2 5 11.8-9.3.7zM892 1007h2l1.8-.2c.6 0 1-.2 1.5-.3 1.3-.4 2.4-1 3.5-1.4 1-.5 2-1.2 2.6-2 .7-1 1.2-1.8 1.4-3 .3-1 .2-2.2-.2-3.6-.3-1-.7-2-1.3-2.6-.6-.6-1.3-1.3-2-1.7-1-.4-1.8-.8-2.8-1l-3-1c-1.2 0-2-.4-3-.5l-2-.8-1.5-1c-.4-.5-.7-1-1-1.8v-2.2l1-1.6c.4-.5 1-1 1.6-1.2.6-.4 1.3-.6 2-.8 2.4-.7 4.5-.7 6.4 0l-1-3.6c-1.4-.4-3.4-.2-6 .6-1 .3-2.2.7-3.2 1.3-1 .6-1.8 1.3-2.5 2.2-.7.8-1.2 1.8-1.4 3-.4 1-.4 2 0 3.4.3 1 .7 2 1.2 2.6.6.7 1.2 1.2 2 1.7.7.4 1.6.8 2.5 1l3 1c1 0 2 .3 2.8.5l2.3.7 1.7 1.2c.4.5.7 1 1 1.8.3 1.4.2 2.6-.6 3.6s-2 2-4 2.4c-.5.2-1 .3-1.8.3h-2c-.8 0-1.5 0-2-.2-.8 0-1.4-.4-2-.6l1.2 3.7 1.5.3zM921 966.6l-3 1.3 7 16c2.3 5.3 1.3 8.7-3 10.6-4.2 1.8-7.5 0-9.8-5.3l-7-16-3 1.4 7 16c3.2 7.2 7.8 9.4 13.8 6.8 6.3-2.8 8-8 4.7-15.2l-6.8-15.7zM934.4 958.5l-2.8 1.8L938 990l3-1.8-2-8.3 9.8-6.2 6.7 5.3 3-1.8-24-18.7zm4 18.3l-3-12.6c0-.5-.3-1-.7-1.8.7.6 1 1 1.5 1.3l10 8-8 5z"/></g></g><defs><radialGradient id="a" cx="0" cy="0" r="1" gradientUnits="userSpaceOnUse" gradientTransform="matrix(1078.5 0 0 569.5 1078.5 569.5)"><stop offset="0%" stop-color="#fff"/><stop offset="44%" stop-color="#fff3d9"/><stop offset="100%" stop-color="#ffd87d"/></radialGradient></defs></svg>